<?xml version="1.0" encoding="UTF-8"?>
<svg xmlns="http://www.w3.org/2000/svg" xmlns:xlink="http://www.w3.org/1999/xlink" width="793" zoomAndPan="magnify" viewBox="0 0 595.5 842.249979" height="1122" preserveAspectRatio="xMidYMid meet" version="1.0">
  <defs>
    <g></g>
    <clipPath id="251ccbf0f6">
      <path d="M 259 243 L 583.4375 243 L 583.4375 644.210938 L 259 644.210938 Z M 259 243 " clip-rule="nonzero"></path>
    </clipPath>
    <clipPath id="9e77a4af33">
      <path d="M 18.4375 457 L 581 457 L 581 644.210938 L 18.4375 644.210938 Z M 18.4375 457 " clip-rule="nonzero"></path>
    </clipPath>
    <clipPath id="86462dbe8c">
      <path d="M 486 455 L 583.4375 455 L 583.4375 644.210938 L 486 644.210938 Z M 486 455 " clip-rule="nonzero"></path>
    </clipPath>
    <clipPath id="20f5c38cd8">
      <path d="M 174 39.5 L 537 39.5 L 537 349 L 174 349 Z M 174 39.5 " clip-rule="nonzero"></path>
    </clipPath>
    <clipPath id="4484244c20">
      <path d="M 18.4375 578 L 583.4375 578 L 583.4375 644.210938 L 18.4375 644.210938 Z M 18.4375 578 " clip-rule="nonzero"></path>
    </clipPath>
    <clipPath id="7fbfe5532b">
      <path d="M 472 560 L 583.4375 560 L 583.4375 644.210938 L 472 644.210938 Z M 472 560 " clip-rule="nonzero"></path>
    </clipPath>
    <clipPath id="8592c9ec5c">
      <path d="M 123 508 L 308 508 L 308 644.210938 L 123 644.210938 Z M 123 508 " clip-rule="nonzero"></path>
    </clipPath>
    <clipPath id="3dab42b2bb">
      <path d="M 47 549 L 294 549 L 294 644.210938 L 47 644.210938 Z M 47 549 " clip-rule="nonzero"></path>
    </clipPath>
  </defs>
  <path stroke-linecap="butt" transform="matrix(2.819199, 0, 0, 2.819864, 0.925074, -86.359048)" fill="none" stroke-linejoin="miter" d="M 174.415378 135.997948 L 160.203396 168.492031 L 154.185784 174.486058 L 110.766978 180.391428 L 117.543892 174.68138 L 136.798032 146.658921 Z M 174.415378 135.997948 " stroke="#000000" stroke-width="2.3" stroke-opacity="1" stroke-miterlimit="5.857"></path>
  <g clip-path="url(#251ccbf0f6)">
    <path stroke-linecap="butt" transform="matrix(2.819199, 0, 0, 2.819864, 0.925074, -86.359048)" fill="none" stroke-linejoin="miter" d="M 174.415378 135.997948 C 176.43141 138.985957 189.162198 174.378007 189.162198 174.378007 L 194.191885 181.323709 L 192.505624 184.000035 L 191.713067 184.60955 L 191.186543 245.513964 L 153.459736 248.604483 L 154.185784 174.486058 L 110.766978 180.391428 L 111.401578 225.154774 L 118.124454 225.175552 L 118.472237 243.753297 L 153.466664 246.28417 L 153.459736 248.604483 " stroke="#000000" stroke-width="2.3" stroke-opacity="1" stroke-miterlimit="5.857"></path>
  </g>
  <path stroke-linecap="butt" transform="matrix(2.819199, 0, 0, 2.819864, 0.925074, -86.359048)" fill="none" stroke-linejoin="miter" d="M 168.439334 137.707361 L 110.628419 118.118375 L 81.44238 133.809234 L 85.798671 135.076749 L 85.43149 143.337064 L 54.688049 160.602965 L 32.615622 187.161202 L 85.122504 162.076884 L 85.43149 143.337064 L 84.591823 212.577983 L 35.546142 213.188883 L 36.244479 189.327751 L 33.541195 187.032373 L 33.338899 186.850903 " stroke="#000000" stroke-width="2.3" stroke-opacity="1" stroke-miterlimit="5.857"></path>
  <g clip-path="url(#9e77a4af33)">
    <path stroke-linecap="butt" transform="matrix(2.819199, 0, 0, 2.819864, 0.925074, -86.359048)" fill="none" stroke-linejoin="miter" d="M 186.385479 246.159496 L 186.404877 254.707946 L 112.151181 254.926817 C 112.216304 249.081013 101.358831 238.485146 100.997193 238.280128 C 91.019569 231.841432 87.078955 227.501407 68.658939 228.78693 C 48.039995 231.921777 34.813166 244.777005 24.117807 254.912965 L 10.480843 254.881103 L 10.46006 213.582298 L 108.130203 212.0876 L 111.308744 212.037731 " stroke="#000000" stroke-width="2.3" stroke-opacity="1" stroke-miterlimit="5.857"></path>
  </g>
  <g clip-path="url(#86462dbe8c)">
    <path stroke-linecap="butt" transform="matrix(2.819199, 0, 0, 2.819864, 0.925074, -86.359048)" fill="none" stroke-linejoin="miter" d="M 191.441492 211.144237 L 202.3724 212.253832 L 202.283723 254.832619 L 202.340532 225.828011 C 202.517887 225.706108 194.035314 219.965583 191.363899 226.535879 " stroke="#000000" stroke-width="2.3" stroke-opacity="1" stroke-miterlimit="5.857"></path>
  </g>
  <g clip-path="url(#20f5c38cd8)">
    <path stroke-linecap="butt" transform="matrix(2.819199, 0, 0, 2.819864, 0.925074, -86.359048)" fill="none" stroke-linejoin="miter" d="M 81.44238 133.809234 L 80.775912 131.174467 L 83.325395 129.767041 L 93.639717 112.271186 L 103.420587 118.316468 L 109.896829 114.558253 L 170.882127 135.298391 L 165.73328 133.246818 L 159.970617 126.543537 L 152.064448 123.43501 L 152.201621 120.646478 L 152.793268 119.978782 L 151.478344 117.496393 L 148.776446 118.750055 L 147.669361 117.812233 L 143.554162 112.814209 L 134.431447 107.593157 L 133.378399 105.577602 L 133.327133 86.848864 L 135.966679 83.768042 L 132.796452 80.81882 L 134.704408 75.633786 L 131.397008 70.797837 L 127.230543 68.66869 L 128.440162 66.593568 L 126.945111 63.572312 L 126.802396 58.66433 L 126.037551 47.715222 L 124.901368 63.575083 L 123.366136 66.729324 L 124.737869 68.638214 L 119.946503 70.515244 L 117.639498 74.38705 L 119.273107 79.874072 L 115.841004 83.356619 L 118.293496 86.495622 L 117.556363 99.996382 L 117.434431 105.685652 L 104.197903 114.497301 L 93.639717 112.271186 " stroke="#000000" stroke-width="2.3" stroke-opacity="1" stroke-miterlimit="5.857"></path>
  </g>
  <path stroke-linecap="butt" transform="matrix(2.819199, 0, 0, 2.819864, 0.925074, -86.359048)" fill="none" stroke-linejoin="miter" d="M 170.882127 135.298391 L 170.8655 136.973172 Z M 170.882127 135.298391 " stroke="#000000" stroke-width="2.3" stroke-opacity="1" stroke-miterlimit="5.857"></path>
  <g clip-path="url(#4484244c20)">
    <path stroke-linecap="butt" transform="matrix(2.819199, 0, 0, 2.819864, 0.925074, -86.359048)" fill="none" stroke-linejoin="miter" d="M 24.117807 254.912965 L 112.151181 254.926817 L 186.404877 254.707946 L 202.283723 254.832619 " stroke="#000000" stroke-width="2.3" stroke-opacity="1" stroke-miterlimit="5.857"></path>
  </g>
  <path stroke-linecap="butt" transform="matrix(2.819199, 0, 0, 2.819864, 0.925074, -86.359048)" fill="none" stroke-linejoin="miter" d="M 110.628419 118.118375 L 110.766978 180.391428 " stroke="#000000" stroke-width="2.3" stroke-opacity="1" stroke-miterlimit="5.857"></path>
  <path fill="#ffffff" d="M 104.550781 507.050781 C 104.867188 504.527344 105.421875 489.773438 105.785156 474.265625 L 106.445312 446.074219 L 100.867188 441.261719 L 169.035156 408.714844 C 206.527344 390.8125 237.335938 376.328125 237.5 376.53125 C 237.664062 376.734375 237.429688 403.488281 236.976562 435.988281 C 236.527344 468.484375 236.121094 498.226562 236.078125 502.078125 L 236.003906 509.085938 L 213.585938 509.714844 C 201.257812 510.0625 171.554688 510.636719 147.578125 510.992188 L 103.980469 511.644531 Z M 104.550781 507.050781 " fill-opacity="1" fill-rule="nonzero"></path>
  <path fill="#ffffff" d="M 316.175781 333.742188 C 316.175781 288.710938 316.527344 251.867188 316.960938 251.867188 C 318.207031 251.867188 462.191406 300.664062 463 301.363281 C 463.398438 301.703125 445.9375 306.96875 424.203125 313.0625 L 384.6875 324.144531 L 360.773438 358.960938 C 330.140625 403.574219 330.253906 403.421875 322.625 410.03125 L 316.175781 415.621094 Z M 316.175781 333.742188 " fill-opacity="1" fill-rule="nonzero"></path>
  <g clip-path="url(#7fbfe5532b)">
    <path stroke-linecap="butt" transform="matrix(2.819199, 0, 0, 2.819864, 0.925074, -86.359048)" fill="none" stroke-linejoin="miter" d="M 202.211672 248.968807 L 186.276017 248.453489 " stroke="#000000" stroke-width="2.3" stroke-opacity="1" stroke-miterlimit="5.857"></path>
  </g>
  <g clip-path="url(#8592c9ec5c)">
    <path stroke-linecap="butt" transform="matrix(2.819199, 0, 0, 2.819864, 0.925074, -86.359048)" fill="none" stroke-linejoin="miter" d="M 89.603497 254.973916 C 84.698514 242.603529 73.766219 234.974893 62.534638 230.00596 " stroke="#000000" stroke-width="2.3" stroke-opacity="1" stroke-miterlimit="5.857"></path>
  </g>
  <path stroke-linecap="butt" transform="matrix(2.819199, 0, 0, 2.819864, 0.925074, -86.359048)" fill="none" stroke-linejoin="miter" d="M 102.406336 212.048813 L 102.228981 194.528023 C 101.24937 191.880788 100.814295 189.966357 96.535597 189.597877 " stroke="#000000" stroke-width="2.3" stroke-opacity="1" stroke-miterlimit="5.857"></path>
  <path stroke-linecap="butt" transform="matrix(2.819199, 0, 0, 2.819864, 0.925074, -86.359048)" fill="none" stroke-linejoin="miter" d="M 96.484331 212.159634 L 96.463547 196.421676 C 98.153965 193.490462 99.607447 191.506768 100.618927 191.282355 " stroke="#000000" stroke-width="2.3" stroke-opacity="1" stroke-miterlimit="5.857"></path>
  <g clip-path="url(#3dab42b2bb)">
    <path stroke-linecap="butt" transform="matrix(2.819199, 0, 0, 2.819864, 0.925074, -86.359048)" fill="none" stroke-linejoin="miter" d="M 84.598751 254.845087 L 35.679159 244.612159 " stroke="#000000" stroke-width="2.3" stroke-opacity="1" stroke-miterlimit="5.857"></path>
  </g>
  <path stroke-linecap="butt" transform="matrix(2.819199, 0, 0, 2.819864, 0.925074, -86.359048)" fill="none" stroke-linejoin="miter" d="M 88.416048 212.3508 C 88.227608 195.942376 88.652984 194.839707 88.652984 194.839707 C 89.722658 192.196628 91.131802 189.934496 94.209194 189.557705 L 96.535597 189.597877 " stroke="#000000" stroke-width="2.3" stroke-opacity="1" stroke-miterlimit="5.857"></path>
  <path fill="#00457d" d="M 387.773438 262.1875 C 346.070312 247.949219 311.546875 236.289062 311.046875 236.277344 C 310.550781 236.261719 306.289062 238.476562 301.582031 241.195312 C 296.875 243.914062 292.785156 246.140625 292.488281 246.140625 C 291.609375 246.140625 270.257812 232.753906 270.59375 232.417969 C 270.765625 232.246094 276.277344 233.265625 282.84375 234.683594 L 294.78125 237.261719 L 313.851562 224.597656 L 332.921875 211.929688 L 333.015625 201.628906 C 333.066406 195.960938 333.554688 183.71875 334.101562 174.425781 L 335.097656 157.527344 L 331.839844 153.152344 L 328.578125 148.777344 L 333.316406 143.988281 L 338.058594 139.199219 L 333.214844 123.550781 L 336.347656 118.335938 C 339.402344 113.257812 339.667969 113.046875 346.503906 110.3125 L 353.527344 107.5 L 351.535156 104.570312 L 349.546875 101.640625 L 351.539062 97.707031 C 353.261719 94.308594 353.707031 91.550781 354.804688 77.480469 C 355.503906 68.519531 356.195312 61.066406 356.34375 60.917969 C 356.75 60.515625 357.691406 77.261719 357.691406 84.804688 C 357.691406 90.144531 358.101562 92.289062 359.882812 96.261719 C 362.011719 101 362.035156 101.234375 360.707031 104.015625 C 359.957031 105.59375 359.339844 107.171875 359.339844 107.523438 C 359.339844 107.875 361.910156 109.402344 365.050781 110.921875 C 370.238281 113.433594 371.175781 114.296875 375.382812 120.425781 L 380.007812 127.167969 L 377.503906 133.671875 C 376.125 137.25 375 140.570312 375 141.050781 C 375 141.53125 376.839844 143.742188 379.09375 145.960938 L 383.1875 149.992188 L 379.371094 154.457031 L 375.558594 158.921875 L 376.09375 185.746094 C 376.566406 209.503906 376.800781 212.863281 378.117188 215.121094 C 379.183594 216.953125 383.226562 219.753906 392.515625 225.101562 C 405.148438 232.375 405.578125 232.714844 411.988281 240.488281 C 415.59375 244.859375 418.933594 248.675781 419.40625 248.96875 C 419.882812 249.261719 421.75 248.746094 423.5625 247.820312 C 425.371094 246.898438 427.015625 246.140625 427.214844 246.140625 C 428.121094 246.140625 430.808594 251.816406 430.199219 252.441406 C 429.820312 252.832031 429.410156 255.179688 429.285156 257.660156 L 429.054688 262.171875 L 451.8125 271.28125 L 458.730469 279.378906 C 462.539062 283.832031 465.652344 287.636719 465.652344 287.828125 C 465.652344 288.023438 465.1875 288.15625 464.621094 288.125 C 464.054688 288.09375 429.472656 276.421875 387.773438 262.1875 Z M 387.773438 262.1875 " fill-opacity="1" fill-rule="nonzero"></path>
  <path fill="#e6444f" d="M 96.445312 438.585938 C 96.445312 438.398438 109.75 422.222656 126.007812 402.644531 L 155.574219 367.050781 L 197.914062 343.273438 L 240.253906 319.492188 L 240.472656 344.015625 C 240.59375 357.5 240.535156 368.9375 240.347656 369.429688 C 240.0625 370.175781 203.339844 387.933594 109.425781 432.742188 C 102.285156 436.148438 96.445312 438.777344 96.445312 438.585938 Z M 96.445312 438.585938 " fill-opacity="1" fill-rule="nonzero"></path>
  <path fill="#e6444f" d="M 316.484375 420.648438 C 316.484375 420.511719 320.15625 417.335938 324.644531 413.589844 L 332.800781 406.773438 L 359.457031 367.929688 C 374.117188 346.566406 386.488281 328.746094 386.941406 328.328125 C 387.710938 327.621094 490.539062 298.109375 490.992188 298.460938 C 491.105469 298.550781 482.472656 318.621094 471.808594 343.066406 L 452.421875 387.511719 L 443.585938 396.320312 L 434.746094 405.128906 L 376.648438 413.015625 C 319.757812 420.738281 316.484375 421.152344 316.484375 420.648438 Z M 316.484375 420.648438 " fill-opacity="1" fill-rule="nonzero"></path>
  <path fill="#878783" d="M 36.386719 631.820312 L 30.925781 631.691406 L 30.925781 516.3125 L 34.324219 516.3125 C 36.195312 516.3125 55.433594 516.035156 77.078125 515.703125 C 124.734375 514.964844 172.644531 514.347656 205.640625 514.039062 C 219.125 513.914062 233.21875 513.636719 236.957031 513.421875 C 243.960938 513.019531 313.5 511.949219 313.789062 512.238281 C 313.878906 512.328125 314.085938 520.609375 314.25 530.636719 L 314.550781 548.871094 L 333.28125 548.871094 L 333.53125 554.332031 C 333.667969 557.335938 333.882812 567.863281 334.003906 577.722656 C 334.125 587.585938 334.324219 596.953125 334.445312 598.542969 L 334.667969 601.433594 L 361.941406 603.402344 C 376.941406 604.484375 398.117188 606.007812 408.992188 606.78125 C 419.871094 607.558594 429.746094 608.308594 430.9375 608.445312 L 433.097656 608.695312 L 433.097656 615.289062 L 435.261719 615.042969 C 438.914062 614.625 522.949219 607.8125 524.425781 607.8125 L 525.8125 607.8125 L 525.8125 619.558594 C 525.8125 626.019531 525.765625 631.3125 525.710938 631.324219 C 525.652344 631.335938 478.882812 631.503906 421.769531 631.699219 C 351.328125 631.945312 317.851562 631.921875 317.675781 631.640625 C 317.53125 631.40625 317.304688 630.308594 317.175781 629.191406 C 316.207031 621.011719 305.105469 604.5625 290.480469 589.636719 C 286.84375 585.929688 284.984375 584.46875 278.164062 579.980469 C 258.949219 567.335938 251.1875 563.425781 239.84375 560.679688 C 225.164062 557.132812 202.332031 556.652344 187.414062 559.582031 C 155.628906 565.820312 127.515625 580.304688 97.0625 606.128906 C 90.628906 611.585938 82.445312 618.972656 74.089844 626.875 L 68.53125 632.128906 L 55.1875 632.039062 C 47.851562 631.988281 39.390625 631.890625 36.386719 631.820312 Z M 36.386719 631.820312 " fill-opacity="1" fill-rule="nonzero"></path>
  <path fill="#878783" d="M 541.058594 529.789062 L 541.058594 509.71875 L 542.015625 509.71875 C 543.007812 509.71875 565.757812 511.988281 569.183594 512.425781 L 571.140625 512.679688 L 571.140625 519.542969 C 571.140625 523.320312 571.015625 531.546875 570.867188 537.828125 L 570.597656 549.246094 L 569.429688 548.417969 C 567.792969 547.25 562.738281 544.984375 559.808594 544.101562 C 556.679688 543.160156 550.132812 543.050781 548.066406 543.902344 C 545.648438 544.898438 543.578125 546.4375 542.289062 548.191406 L 541.058594 549.859375 Z M 541.058594 529.789062 " fill-opacity="1" fill-rule="nonzero"></path>
  <path fill="#878783" d="M 43.0625 631.652344 L 30.96875 631.484375 L 30.96875 516.8125 L 45.683594 516.449219 C 53.777344 516.25 81.246094 515.820312 106.726562 515.496094 C 192.242188 514.40625 236.824219 513.730469 258.824219 513.1875 C 270.84375 512.890625 288.042969 512.636719 297.046875 512.625 L 313.417969 512.597656 L 313.800781 522.308594 C 314.011719 527.648438 314.183594 535.914062 314.183594 540.667969 L 314.183594 549.320312 L 323.507812 549.320312 C 328.636719 549.320312 332.871094 549.386719 332.914062 549.464844 C 332.960938 549.546875 333.289062 561.195312 333.644531 575.355469 C 334 589.515625 334.417969 601.230469 334.578125 601.390625 C 334.738281 601.546875 351.785156 602.890625 372.457031 604.375 C 393.132812 605.863281 414.851562 607.457031 420.726562 607.925781 C 426.601562 608.390625 431.78125 608.773438 432.234375 608.773438 C 432.855469 608.773438 433.0625 609.617188 433.0625 612.132812 L 433.0625 615.492188 L 451.859375 613.910156 C 476.96875 611.792969 522.769531 608.179688 524.410156 608.1875 L 525.71875 608.191406 L 525.71875 630.734375 L 499.402344 631.121094 C 484.925781 631.332031 438.152344 631.507812 395.460938 631.507812 L 317.839844 631.507812 L 317.207031 628.34375 C 315.523438 619.960938 305.265625 604.75 292.0625 591.0625 C 287.542969 586.382812 284.648438 584.078125 276.597656 578.761719 C 253.863281 563.753906 244.019531 559.898438 223.609375 558.011719 C 214.375 557.15625 197.082031 557.621094 189.769531 558.917969 C 182.941406 560.128906 170.746094 563.335938 164.128906 565.660156 C 135.476562 575.71875 110.464844 592.433594 76.832031 623.996094 L 68.207031 632.089844 L 61.679688 631.957031 C 58.089844 631.882812 49.710938 631.746094 43.0625 631.652344 Z M 43.0625 631.652344 " fill-opacity="1" fill-rule="nonzero"></path>
  <path fill="#ffd300" d="M 243.097656 501.378906 C 243.113281 483.667969 245.414062 311.378906 245.695312 306.695312 C 245.863281 303.890625 246.132812 299.386719 246.292969 296.6875 L 246.585938 291.777344 L 244.691406 291.367188 C 239.085938 290.148438 237.636719 291.140625 271.976562 272.667969 C 289.582031 263.195312 305.230469 254.808594 306.753906 254.03125 L 309.523438 252.613281 L 309.523438 420.867188 L 306.03125 423.746094 C 304.109375 425.328125 302.535156 426.777344 302.535156 426.964844 C 302.53125 427.148438 304.03125 427.097656 305.863281 426.851562 C 307.699219 426.601562 309.335938 426.535156 309.503906 426.703125 C 309.859375 427.058594 310.957031 507.277344 310.613281 507.621094 C 310.488281 507.75 306.5625 508.039062 301.890625 508.265625 L 293.394531 508.679688 L 293.011719 494.171875 C 292.796875 486.195312 292.625 475.515625 292.625 470.445312 C 292.621094 461.523438 292.566406 461.085938 290.875 457.027344 C 287.324219 448.496094 283.335938 445.839844 272.78125 444.980469 C 260.425781 443.976562 254.476562 447.425781 249.089844 458.707031 L 246.878906 463.34375 L 246.464844 509.101562 L 243.089844 509.101562 Z M 243.097656 501.378906 " fill-opacity="1" fill-rule="nonzero"></path>
  <path fill="#ffd300" d="M 316.515625 333.398438 C 316.515625 278.050781 316.707031 252.050781 317.113281 252.050781 C 317.445312 252.050781 344.125 260.992188 376.410156 271.921875 C 408.691406 282.851562 441.332031 293.902344 448.945312 296.476562 C 456.554688 299.050781 462.785156 301.339844 462.785156 301.5625 C 462.785156 301.78125 445.410156 306.898438 424.175781 312.925781 C 402.941406 318.953125 385.261719 324.046875 384.882812 324.25 C 384.507812 324.453125 376.539062 335.765625 367.183594 349.390625 C 327.894531 406.585938 330.503906 403.011719 323.910156 408.726562 C 320.644531 411.558594 317.644531 414.070312 317.242188 414.308594 C 316.660156 414.65625 316.515625 398.316406 316.515625 333.398438 Z M 316.515625 333.398438 " fill-opacity="1" fill-rule="nonzero"></path>
  <path fill="#ffd300" d="M 410.628906 276.210938 C 375.371094 264.226562 338.875 251.820312 329.519531 248.640625 L 312.511719 242.863281 L 275.707031 262.652344 C 255.460938 273.539062 238.804688 282.351562 238.691406 282.234375 C 238.578125 282.121094 244.515625 271.808594 251.890625 259.316406 C 259.265625 246.824219 265.492188 236.277344 265.726562 235.878906 C 266.027344 235.367188 269.824219 237.425781 278.65625 242.894531 C 285.539062 247.152344 291.449219 250.8125 291.800781 251.027344 C 292.148438 251.242188 296.636719 248.972656 301.769531 245.980469 L 311.105469 240.539062 L 341.929688 251.011719 C 358.878906 256.773438 385.335938 265.769531 400.722656 271 C 416.105469 276.230469 439.75 284.269531 453.261719 288.863281 C 466.773438 293.457031 477.707031 297.414062 477.558594 297.65625 C 477.40625 297.898438 476.710938 298.074219 476.007812 298.046875 C 475.304688 298.019531 445.882812 288.195312 410.628906 276.210938 Z M 410.628906 276.210938 " fill-opacity="1" fill-rule="nonzero"></path>
  <path fill="#ffd300" d="M 253.683594 486.804688 L 253.90625 464.511719 L 255.558594 461.332031 C 257.984375 456.671875 259.40625 454.949219 262.167969 453.328125 C 264.464844 451.976562 265.082031 451.890625 271.007812 452.074219 C 274.511719 452.183594 277.578125 452.472656 277.820312 452.71875 C 278.066406 452.964844 277.699219 453.882812 277.003906 454.757812 C 276.3125 455.632812 274.296875 458.644531 272.527344 461.445312 L 269.3125 466.539062 L 269.3125 508.367188 L 267.128906 508.726562 C 265.925781 508.925781 262.359375 509.089844 259.203125 509.09375 L 253.464844 509.101562 Z M 253.683594 486.804688 " fill-opacity="1" fill-rule="nonzero"></path>
  <path fill="#ffd300" d="M 276.304688 488.632812 L 276.304688 468.742188 L 278.316406 465.429688 C 279.425781 463.609375 281.09375 461.152344 282.03125 459.976562 L 283.734375 457.835938 L 284.625 460.296875 C 285.34375 462.28125 285.589844 467.226562 285.878906 485.640625 L 286.238281 508.519531 L 276.304688 508.519531 Z M 276.304688 488.632812 " fill-opacity="1" fill-rule="nonzero"></path>
  <path fill="#ffd300" d="M 104.699219 506.953125 C 104.886719 504.445312 105.414062 489.808594 105.867188 474.421875 L 106.699219 446.441406 L 104.011719 443.945312 C 102.535156 442.570312 101.441406 441.332031 101.582031 441.191406 C 101.792969 440.980469 235.1875 377.175781 236.96875 376.433594 C 237.34375 376.277344 237.507812 378.558594 237.429688 382.753906 C 237.359375 386.367188 237.007812 416.203125 236.640625 449.066406 C 236.277344 481.925781 235.882812 508.910156 235.769531 509.03125 C 235.65625 509.148438 215.6875 509.585938 191.394531 510.003906 C 167.101562 510.417969 137.582031 510.921875 125.796875 511.128906 L 104.363281 511.503906 Z M 104.699219 506.953125 " fill-opacity="1" fill-rule="nonzero"></path>
  <path fill="#878783" d="M 253.078125 623.164062 C 241.859375 600.582031 221.699219 581.234375 194.148438 566.605469 L 188.203125 563.449219 L 191.898438 562.808594 C 198.121094 561.734375 214.171875 561.367188 222.691406 562.105469 C 241.980469 563.773438 251.328125 567.347656 272.574219 581.175781 C 281.558594 587.023438 284.792969 589.492188 288.394531 593.257812 C 294.148438 599.269531 300.308594 606.625 304.492188 612.46875 C 307.769531 617.050781 313.019531 626.832031 313.019531 628.359375 C 313.019531 629.046875 308.546875 629.175781 284.542969 629.175781 L 256.0625 629.175781 Z M 253.078125 623.164062 " fill-opacity="1" fill-rule="nonzero"></path>
  <path fill="#97bf0d" d="M 175.054688 615.277344 C 139.078125 607.710938 109.648438 601.382812 109.660156 601.214844 C 109.671875 601.042969 112.230469 599.035156 115.34375 596.746094 C 127.671875 587.6875 140.074219 580.335938 152.179688 574.914062 C 158.988281 571.863281 174.933594 566.242188 176.8125 566.230469 C 178.183594 566.222656 190.28125 572.320312 198.074219 576.949219 C 220.445312 590.238281 237.183594 607.128906 246.804688 626.117188 L 248.351562 629.175781 L 244.410156 629.105469 C 241.726562 629.054688 219.601562 624.644531 175.054688 615.277344 Z M 175.054688 615.277344 " fill-opacity="1" fill-rule="nonzero"></path>
  <path fill="#00457d" d="M 82.714844 624.367188 C 93.222656 614.410156 102.113281 606.960938 103.121094 607.269531 C 103.660156 607.433594 126.789062 612.304688 154.511719 618.09375 C 182.234375 623.878906 205.179688 628.71875 205.503906 628.847656 C 205.824219 628.976562 177.183594 629.105469 141.863281 629.128906 L 77.640625 629.175781 Z M 82.714844 624.367188 " fill-opacity="1" fill-rule="nonzero"></path>
  <path fill="#ffd300" d="M 381.492188 600.867188 C 358.734375 599.164062 339.65625 597.753906 339.097656 597.734375 C 338.164062 597.703125 338.078125 596.804688 338.078125 587.300781 C 338.078125 581.585938 337.902344 569.78125 337.691406 561.074219 L 337.304688 545.242188 L 318.261719 545.242188 L 318.265625 536.933594 C 318.269531 528.109375 317.253906 452.070312 316.90625 435.332031 L 316.699219 425.390625 L 374.011719 417.609375 C 405.535156 413.328125 431.492188 409.992188 431.695312 410.195312 C 432.042969 410.546875 431.160156 521.277344 430.355469 577.734375 L 429.980469 604.113281 L 426.421875 604.039062 C 424.464844 604 404.246094 602.574219 381.488281 600.867188 Z M 381.492188 600.867188 " fill-opacity="1" fill-rule="nonzero"></path>
  <path fill="#ffd300" d="M 437.339844 582.984375 C 437.546875 567.515625 438.011719 521.675781 438.371094 481.125 L 439.027344 407.390625 L 447.367188 398.9375 L 455.710938 390.484375 L 474.164062 348.226562 C 484.3125 324.984375 492.6875 305.890625 492.777344 305.800781 C 493.238281 305.316406 507.066406 341.433594 520.738281 378.828125 C 525.429688 391.652344 529.769531 403.398438 530.382812 404.933594 C 531 406.46875 534.265625 411.511719 537.644531 416.140625 C 541.023438 420.769531 543.785156 424.84375 543.785156 425.195312 C 543.785156 426.171875 540.519531 430.699219 539.144531 431.628906 L 537.921875 432.453125 L 537.183594 517.386719 C 536.777344 564.101562 536.324219 602.429688 536.179688 602.554688 C 536.035156 602.683594 514.414062 604.53125 488.132812 606.664062 C 461.851562 608.792969 439.585938 610.667969 438.65625 610.824219 L 436.960938 611.113281 Z M 437.339844 582.984375 " fill-opacity="1" fill-rule="nonzero"></path>
  <path fill="#00457d" d="M 529.800781 623.269531 L 529.800781 617.941406 L 545.097656 618.328125 C 553.511719 618.539062 562.03125 618.867188 564.035156 619.058594 L 567.679688 619.402344 L 567.679688 628.59375 L 529.800781 628.59375 Z M 529.800781 623.269531 " fill-opacity="1" fill-rule="nonzero"></path>
  <path fill="#97bf0d" d="M 547.574219 611.445312 C 529.484375 610.8125 526.960938 610.367188 537.433594 609.644531 L 543.027344 609.261719 L 543.402344 601.003906 C 543.609375 596.460938 543.78125 583.859375 543.785156 572.996094 C 543.785156 554.144531 543.839844 553.160156 544.972656 551.324219 C 546.3125 549.160156 550.28125 546.980469 552.855469 547.003906 C 555.679688 547.027344 559.582031 548.105469 563.746094 550.019531 L 567.679688 551.824219 L 567.679688 582.046875 C 567.679688 610.480469 567.617188 612.265625 566.65625 612.171875 C 566.097656 612.121094 557.507812 611.792969 547.574219 611.445312 Z M 547.574219 611.445312 " fill-opacity="1" fill-rule="nonzero"></path>
  <g fill="#e6444f" fill-opacity="1">
    <g transform="translate(18.468472, 752.484449)">
      <g>
        <path d="M 61.40625 -48.453125 C 66.050781 -46.847656 69.875 -44.207031 72.875 -40.53125 C 75.882812 -36.851562 77.390625 -32.054688 77.390625 -26.140625 C 77.390625 -16.742188 74.660156 -10.035156 69.203125 -6.015625 C 63.742188 -2.003906 57.082031 0 49.21875 0 L 16.625 0 C 14.925781 0 13.484375 -0.585938 12.296875 -1.765625 C 11.117188 -2.953125 10.53125 -4.394531 10.53125 -6.09375 L 10.53125 -82.71875 C 10.53125 -84.40625 11.117188 -85.835938 12.296875 -87.015625 C 13.484375 -88.203125 14.925781 -88.796875 16.625 -88.796875 L 49.21875 -88.796875 C 56.914062 -88.796875 62.769531 -86.894531 66.78125 -83.09375 C 70.800781 -79.289062 72.8125 -73.789062 72.8125 -66.59375 C 72.8125 -62.539062 71.835938 -58.925781 69.890625 -55.75 C 67.953125 -52.582031 65.125 -50.148438 61.40625 -48.453125 Z M 59.75 -64.703125 C 59.75 -68.671875 58.671875 -71.691406 56.515625 -73.765625 C 54.359375 -75.835938 51.335938 -76.875 47.453125 -76.875 L 23.46875 -76.875 L 23.46875 -52.140625 L 47.703125 -52.140625 C 51.171875 -52.222656 54.046875 -53.34375 56.328125 -55.5 C 58.609375 -57.65625 59.75 -60.722656 59.75 -64.703125 Z M 49.09375 -11.671875 C 53.75 -11.671875 57.46875 -12.875 60.25 -15.28125 C 63.039062 -17.695312 64.4375 -21.316406 64.4375 -26.140625 C 64.4375 -35.523438 59.109375 -40.21875 48.453125 -40.21875 L 23.46875 -40.21875 L 23.46875 -11.671875 Z M 49.09375 -11.671875 "></path>
      </g>
    </g>
  </g>
  <g fill="#e6444f" fill-opacity="1">
    <g transform="translate(101.306396, 752.484449)">
      <g>
        <path d="M 62.921875 -67.359375 C 64.703125 -67.359375 66.160156 -66.785156 67.296875 -65.640625 C 68.441406 -64.503906 69.015625 -63.003906 69.015625 -61.140625 L 69.015625 -6.09375 C 69.015625 -4.394531 68.441406 -2.953125 67.296875 -1.765625 C 66.160156 -0.585938 64.703125 0 62.921875 0 C 61.148438 0 59.710938 -0.566406 58.609375 -1.703125 C 57.503906 -2.847656 56.953125 -4.3125 56.953125 -6.09375 L 56.953125 -9.390625 C 54.753906 -6.429688 51.753906 -3.914062 47.953125 -1.84375 C 44.148438 0.226562 40.046875 1.265625 35.640625 1.265625 C 29.890625 1.265625 24.664062 -0.210938 19.96875 -3.171875 C 15.28125 -6.128906 11.601562 -10.25 8.9375 -15.53125 C 6.28125 -20.820312 4.953125 -26.765625 4.953125 -33.359375 C 4.953125 -39.960938 6.28125 -45.90625 8.9375 -51.1875 C 11.601562 -56.46875 15.257812 -60.585938 19.90625 -63.546875 C 24.5625 -66.515625 29.679688 -68 35.265625 -68 C 39.742188 -68 43.90625 -67.066406 47.75 -65.203125 C 51.601562 -63.347656 54.671875 -60.984375 56.953125 -58.109375 L 56.953125 -61.140625 C 56.953125 -62.921875 57.503906 -64.398438 58.609375 -65.578125 C 59.710938 -66.765625 61.148438 -67.359375 62.921875 -67.359375 Z M 37.046875 -9.890625 C 41.015625 -9.890625 44.539062 -10.90625 47.625 -12.9375 C 50.71875 -14.96875 53.128906 -17.757812 54.859375 -21.3125 C 56.597656 -24.863281 57.46875 -28.878906 57.46875 -33.359375 C 57.46875 -37.753906 56.597656 -41.726562 54.859375 -45.28125 C 53.128906 -48.832031 50.71875 -51.644531 47.625 -53.71875 C 44.539062 -55.789062 41.015625 -56.828125 37.046875 -56.828125 C 33.066406 -56.828125 29.53125 -55.8125 26.4375 -53.78125 C 23.351562 -51.757812 20.945312 -48.972656 19.21875 -45.421875 C 17.488281 -41.867188 16.625 -37.847656 16.625 -33.359375 C 16.625 -28.878906 17.488281 -24.863281 19.21875 -21.3125 C 20.945312 -17.757812 23.351562 -14.96875 26.4375 -12.9375 C 29.53125 -10.90625 33.066406 -9.890625 37.046875 -9.890625 Z M 37.046875 -9.890625 "></path>
      </g>
    </g>
  </g>
  <g fill="#e6444f" fill-opacity="1">
    <g transform="translate(179.196886, 752.484449)">
      <g>
        <path d="M 85.25 -67.609375 C 100.050781 -67.609375 107.453125 -58.390625 107.453125 -39.953125 L 107.453125 -6.09375 C 107.453125 -4.3125 106.898438 -2.847656 105.796875 -1.703125 C 104.703125 -0.566406 103.265625 0 101.484375 0 C 99.710938 0 98.253906 -0.585938 97.109375 -1.765625 C 95.960938 -2.953125 95.390625 -4.394531 95.390625 -6.09375 L 95.390625 -39.828125 C 95.390625 -50.910156 90.738281 -56.453125 81.4375 -56.453125 C 78.144531 -56.453125 75.164062 -55.710938 72.5 -54.234375 C 69.832031 -52.753906 67.757812 -50.742188 66.28125 -48.203125 C 64.800781 -45.671875 64.0625 -42.878906 64.0625 -39.828125 L 64.0625 -6.09375 C 64.0625 -4.394531 63.488281 -2.953125 62.34375 -1.765625 C 61.207031 -0.585938 59.75 0 57.96875 0 C 56.195312 0 54.757812 -0.566406 53.65625 -1.703125 C 52.5625 -2.847656 52.015625 -4.3125 52.015625 -6.09375 L 52.015625 -39.953125 C 52.015625 -44.953125 50.957031 -48.953125 48.84375 -51.953125 C 46.726562 -54.953125 43.21875 -56.453125 38.3125 -56.453125 C 33.320312 -56.453125 29.195312 -54.863281 25.9375 -51.6875 C 22.6875 -48.519531 21.0625 -44.609375 21.0625 -39.953125 L 21.0625 -6.09375 C 21.0625 -4.394531 20.488281 -2.953125 19.34375 -1.765625 C 18.207031 -0.585938 16.75 0 14.96875 0 C 13.195312 0 11.757812 -0.566406 10.65625 -1.703125 C 9.550781 -2.847656 9 -4.3125 9 -6.09375 L 9 -60.390625 C 9 -62.078125 9.570312 -63.507812 10.71875 -64.6875 C 11.863281 -65.875 13.28125 -66.46875 14.96875 -66.46875 C 16.75 -66.46875 18.207031 -65.875 19.34375 -64.6875 C 20.488281 -63.507812 21.0625 -62.078125 21.0625 -60.390625 L 21.0625 -55.9375 C 23.257812 -59.238281 26.195312 -62.007812 29.875 -64.25 C 33.550781 -66.488281 37.546875 -67.609375 41.859375 -67.609375 C 52.347656 -67.609375 59.15625 -62.957031 62.28125 -53.65625 C 64.144531 -57.207031 67.234375 -60.421875 71.546875 -63.296875 C 75.859375 -66.171875 80.425781 -67.609375 85.25 -67.609375 Z M 85.25 -67.609375 "></path>
      </g>
    </g>
  </g>
  <g fill="#e6444f" fill-opacity="1">
    <g transform="translate(295.652053, 752.484449)">
      <g>
        <path d="M 42.375 -68 C 48.125 -68 53.320312 -66.515625 57.96875 -63.546875 C 62.625 -60.585938 66.28125 -56.488281 68.9375 -51.25 C 71.601562 -46.007812 72.9375 -40.085938 72.9375 -33.484375 C 72.9375 -26.890625 71.601562 -20.925781 68.9375 -15.59375 C 66.28125 -10.269531 62.625 -6.128906 57.96875 -3.171875 C 53.320312 -0.210938 48.207031 1.265625 42.625 1.265625 C 38.226562 1.265625 34.125 0.296875 30.3125 -1.640625 C 26.507812 -3.585938 23.425781 -6 21.0625 -8.875 L 21.0625 -5.203125 C 21.0625 -3.503906 20.488281 -2.0625 19.34375 -0.875 C 18.207031 0.300781 16.75 0.890625 14.96875 0.890625 C 13.28125 0.890625 11.863281 0.320312 10.71875 -0.8125 C 9.570312 -1.957031 9 -3.421875 9 -5.203125 L 9 -87.78125 C 9 -89.5625 9.550781 -91.019531 10.65625 -92.15625 C 11.757812 -93.300781 13.195312 -93.875 14.96875 -93.875 C 16.75 -93.875 18.207031 -93.28125 19.34375 -92.09375 C 20.488281 -90.914062 21.0625 -89.476562 21.0625 -87.78125 L 21.0625 -56.828125 C 23.09375 -59.878906 26.050781 -62.503906 29.9375 -64.703125 C 33.832031 -66.898438 37.976562 -68 42.375 -68 Z M 40.96875 -9.890625 C 44.863281 -9.890625 48.375 -10.925781 51.5 -13 C 54.632812 -15.070312 57.066406 -17.90625 58.796875 -21.5 C 60.535156 -25.09375 61.40625 -29.085938 61.40625 -33.484375 C 61.40625 -37.890625 60.535156 -41.867188 58.796875 -45.421875 C 57.066406 -48.972656 54.632812 -51.757812 51.5 -53.78125 C 48.375 -55.8125 44.863281 -56.828125 40.96875 -56.828125 C 37 -56.828125 33.445312 -55.8125 30.3125 -53.78125 C 27.1875 -51.757812 24.753906 -48.992188 23.015625 -45.484375 C 21.285156 -41.972656 20.421875 -37.972656 20.421875 -33.484375 C 20.421875 -29.003906 21.285156 -24.988281 23.015625 -21.4375 C 24.753906 -17.882812 27.1875 -15.070312 30.3125 -13 C 33.445312 -10.925781 37 -9.890625 40.96875 -9.890625 Z M 40.96875 -9.890625 "></path>
      </g>
    </g>
  </g>
  <g fill="#e6444f" fill-opacity="1">
    <g transform="translate(373.542544, 752.484449)">
      <g>
        <path d="M 67.359375 -35.78125 C 67.273438 -34.25 66.640625 -32.953125 65.453125 -31.890625 C 64.273438 -30.835938 62.878906 -30.3125 61.265625 -30.3125 L 16.625 -30.3125 C 17.207031 -24.144531 19.550781 -19.195312 23.65625 -15.46875 C 27.757812 -11.75 32.769531 -9.890625 38.6875 -9.890625 C 42.75 -9.890625 46.046875 -10.484375 48.578125 -11.671875 C 51.117188 -12.859375 53.363281 -14.378906 55.3125 -16.234375 C 56.582031 -16.992188 57.804688 -17.375 58.984375 -17.375 C 60.421875 -17.375 61.625 -16.863281 62.59375 -15.84375 C 63.570312 -14.832031 64.0625 -13.65625 64.0625 -12.3125 C 64.0625 -10.53125 63.21875 -8.921875 61.53125 -7.484375 C 59.070312 -5.035156 55.8125 -2.960938 51.75 -1.265625 C 47.695312 0.421875 43.554688 1.265625 39.328125 1.265625 C 32.472656 1.265625 26.445312 -0.171875 21.25 -3.046875 C 16.050781 -5.921875 12.035156 -9.9375 9.203125 -15.09375 C 6.367188 -20.25 4.953125 -26.085938 4.953125 -32.609375 C 4.953125 -39.710938 6.410156 -45.945312 9.328125 -51.3125 C 12.242188 -56.6875 16.085938 -60.8125 20.859375 -63.6875 C 25.640625 -66.5625 30.78125 -68 36.28125 -68 C 41.695312 -68 46.769531 -66.601562 51.5 -63.8125 C 56.238281 -61.019531 60.046875 -57.171875 62.921875 -52.265625 C 65.796875 -47.359375 67.273438 -41.863281 67.359375 -35.78125 Z M 36.28125 -56.828125 C 31.539062 -56.828125 27.4375 -55.492188 23.96875 -52.828125 C 20.507812 -50.171875 18.226562 -46.050781 17.125 -40.46875 L 54.546875 -40.46875 L 54.546875 -41.484375 C 54.128906 -45.960938 52.117188 -49.640625 48.515625 -52.515625 C 44.921875 -55.390625 40.84375 -56.828125 36.28125 -56.828125 Z M 36.28125 -56.828125 "></path>
      </g>
    </g>
  </g>
  <g fill="#e6444f" fill-opacity="1">
    <g transform="translate(445.85131, 752.484449)">
      <g>
        <path d="M 42.125 -68 C 44.320312 -68 46.222656 -67.425781 47.828125 -66.28125 C 49.429688 -65.144531 50.234375 -63.726562 50.234375 -62.03125 C 50.234375 -60 49.703125 -58.453125 48.640625 -57.390625 C 47.585938 -56.335938 46.300781 -55.8125 44.78125 -55.8125 C 44.019531 -55.8125 42.878906 -56.066406 41.359375 -56.578125 C 39.578125 -57.171875 38.179688 -57.46875 37.171875 -57.46875 C 34.546875 -57.46875 31.984375 -56.554688 29.484375 -54.734375 C 26.992188 -52.921875 24.96875 -50.425781 23.40625 -47.25 C 21.84375 -44.082031 21.0625 -40.550781 21.0625 -36.65625 L 21.0625 -6.09375 C 21.0625 -4.394531 20.488281 -2.953125 19.34375 -1.765625 C 18.207031 -0.585938 16.75 0 14.96875 0 C 13.195312 0 11.757812 -0.566406 10.65625 -1.703125 C 9.550781 -2.847656 9 -4.3125 9 -6.09375 L 9 -60.390625 C 9 -62.078125 9.570312 -63.507812 10.71875 -64.6875 C 11.863281 -65.875 13.28125 -66.46875 14.96875 -66.46875 C 16.75 -66.46875 18.207031 -65.875 19.34375 -64.6875 C 20.488281 -63.507812 21.0625 -62.078125 21.0625 -60.390625 L 21.0625 -53.921875 C 22.914062 -58.054688 25.703125 -61.414062 29.421875 -64 C 33.148438 -66.582031 37.382812 -67.914062 42.125 -68 Z M 42.125 -68 "></path>
      </g>
    </g>
  </g>
  <g fill="#e6444f" fill-opacity="1">
    <g transform="translate(498.243435, 752.484449)">
      <g>
        <path d="M 64.578125 -67.359375 C 66.347656 -67.359375 67.800781 -66.785156 68.9375 -65.640625 C 70.082031 -64.503906 70.65625 -63.003906 70.65625 -61.140625 L 70.65625 -5.328125 C 70.65625 1.523438 69.195312 7.253906 66.28125 11.859375 C 63.363281 16.472656 59.410156 19.878906 54.421875 22.078125 C 49.429688 24.273438 43.804688 25.375 37.546875 25.375 C 34.160156 25.375 30.207031 24.78125 25.6875 23.59375 C 21.164062 22.40625 18.269531 21.179688 17 19.921875 C 14.375 18.566406 13.0625 16.875 13.0625 14.84375 C 13.0625 14.332031 13.234375 13.65625 13.578125 12.8125 C 14.503906 10.695312 16.066406 9.640625 18.265625 9.640625 C 19.367188 9.640625 20.550781 9.894531 21.8125 10.40625 C 28.582031 13.019531 33.867188 14.328125 37.671875 14.328125 C 44.441406 14.328125 49.625 12.695312 53.21875 9.4375 C 56.8125 6.1875 58.609375 1.726562 58.609375 -3.9375 L 58.609375 -10.78125 C 56.828125 -7.476562 53.84375 -4.644531 49.65625 -2.28125 C 45.476562 0.0820312 41.0625 1.265625 36.40625 1.265625 C 30.570312 1.265625 25.242188 -0.210938 20.421875 -3.171875 C 15.597656 -6.128906 11.8125 -10.25 9.0625 -15.53125 C 6.320312 -20.820312 4.953125 -26.765625 4.953125 -33.359375 C 4.953125 -39.960938 6.320312 -45.90625 9.0625 -51.1875 C 11.8125 -56.46875 15.578125 -60.585938 20.359375 -63.546875 C 25.140625 -66.515625 30.40625 -68 36.15625 -68 C 40.800781 -68 45.132812 -66.941406 49.15625 -64.828125 C 53.175781 -62.710938 56.328125 -60.132812 58.609375 -57.09375 L 58.609375 -61.140625 C 58.609375 -62.921875 59.15625 -64.398438 60.25 -65.578125 C 61.351562 -66.765625 62.796875 -67.359375 64.578125 -67.359375 Z M 37.796875 -9.890625 C 41.941406 -9.890625 45.617188 -10.882812 48.828125 -12.875 C 52.046875 -14.863281 54.5625 -17.65625 56.375 -21.25 C 58.195312 -24.84375 59.109375 -28.878906 59.109375 -33.359375 C 59.109375 -37.847656 58.195312 -41.867188 56.375 -45.421875 C 54.5625 -48.972656 52.046875 -51.757812 48.828125 -53.78125 C 45.617188 -55.8125 41.941406 -56.828125 37.796875 -56.828125 C 33.742188 -56.828125 30.109375 -55.8125 26.890625 -53.78125 C 23.679688 -51.757812 21.164062 -48.945312 19.34375 -45.34375 C 17.53125 -41.75 16.625 -37.753906 16.625 -33.359375 C 16.625 -28.960938 17.53125 -24.96875 19.34375 -21.375 C 21.164062 -17.78125 23.679688 -14.96875 26.890625 -12.9375 C 30.109375 -10.90625 33.742188 -9.890625 37.796875 -9.890625 Z M 37.796875 -9.890625 "></path>
      </g>
    </g>
  </g>
  <g fill="#00457d" fill-opacity="1">
    <g transform="translate(11.139216, 139.20098)">
      <g>
        <path d="M 61.40625 -48.453125 C 66.050781 -46.847656 69.875 -44.207031 72.875 -40.53125 C 75.882812 -36.851562 77.390625 -32.054688 77.390625 -26.140625 C 77.390625 -16.742188 74.660156 -10.035156 69.203125 -6.015625 C 63.742188 -2.003906 57.082031 0 49.21875 0 L 16.625 0 C 14.925781 0 13.484375 -0.585938 12.296875 -1.765625 C 11.117188 -2.953125 10.53125 -4.394531 10.53125 -6.09375 L 10.53125 -82.71875 C 10.53125 -84.40625 11.117188 -85.835938 12.296875 -87.015625 C 13.484375 -88.203125 14.925781 -88.796875 16.625 -88.796875 L 49.21875 -88.796875 C 56.914062 -88.796875 62.769531 -86.894531 66.78125 -83.09375 C 70.800781 -79.289062 72.8125 -73.789062 72.8125 -66.59375 C 72.8125 -62.539062 71.835938 -58.925781 69.890625 -55.75 C 67.953125 -52.582031 65.125 -50.148438 61.40625 -48.453125 Z M 59.75 -64.703125 C 59.75 -68.671875 58.671875 -71.691406 56.515625 -73.765625 C 54.359375 -75.835938 51.335938 -76.875 47.453125 -76.875 L 23.46875 -76.875 L 23.46875 -52.140625 L 47.703125 -52.140625 C 51.171875 -52.222656 54.046875 -53.34375 56.328125 -55.5 C 58.609375 -57.65625 59.75 -60.722656 59.75 -64.703125 Z M 49.09375 -11.671875 C 53.75 -11.671875 57.46875 -12.875 60.25 -15.28125 C 63.039062 -17.695312 64.4375 -21.316406 64.4375 -26.140625 C 64.4375 -35.523438 59.109375 -40.21875 48.453125 -40.21875 L 23.46875 -40.21875 L 23.46875 -11.671875 Z M 49.09375 -11.671875 "></path>
      </g>
    </g>
  </g>
  <g fill="#00457d" fill-opacity="1">
    <g transform="translate(93.977141, 139.20098)">
      <g>
        <path d="M 68.125 -88.796875 C 69.894531 -88.796875 71.351562 -88.265625 72.5 -87.203125 C 73.644531 -86.148438 74.21875 -84.738281 74.21875 -82.96875 C 74.21875 -81.1875 73.644531 -79.785156 72.5 -78.765625 C 71.351562 -77.753906 69.894531 -77.25 68.125 -77.25 L 45.546875 -77.25 L 45.546875 -6.09375 C 45.546875 -4.394531 44.929688 -2.953125 43.703125 -1.765625 C 42.472656 -0.585938 40.929688 0 39.078125 0 C 37.210938 0 35.664062 -0.585938 34.4375 -1.765625 C 33.21875 -2.953125 32.609375 -4.394531 32.609375 -6.09375 L 32.609375 -77.25 L 10.15625 -77.25 C 8.375 -77.25 6.910156 -77.773438 5.765625 -78.828125 C 4.628906 -79.890625 4.0625 -81.3125 4.0625 -83.09375 C 4.0625 -84.78125 4.628906 -86.148438 5.765625 -87.203125 C 6.910156 -88.265625 8.375 -88.796875 10.15625 -88.796875 Z M 68.125 -88.796875 "></path>
      </g>
    </g>
  </g>
  <g fill="#00457d" fill-opacity="1">
    <g transform="translate(172.248198, 139.20098)">
      <g>
        <path d="M 111.640625 -89.1875 C 113.242188 -89.1875 114.722656 -88.59375 116.078125 -87.40625 C 117.429688 -86.21875 118.109375 -84.65625 118.109375 -82.71875 C 118.109375 -82.039062 117.976562 -81.320312 117.71875 -80.5625 L 91.46875 -3.8125 C 91.125 -2.625 90.421875 -1.710938 89.359375 -1.078125 C 88.304688 -0.441406 87.191406 -0.0820312 86.015625 0 C 84.828125 0 83.679688 -0.335938 82.578125 -1.015625 C 81.484375 -1.691406 80.679688 -2.664062 80.171875 -3.9375 L 60.390625 -50.234375 L 40.71875 -3.9375 C 40.207031 -2.664062 39.398438 -1.691406 38.296875 -1.015625 C 37.203125 -0.335938 36.023438 0 34.765625 0 C 33.578125 -0.0820312 32.472656 -0.460938 31.453125 -1.140625 C 30.441406 -1.816406 29.769531 -2.707031 29.4375 -3.8125 L 3.171875 -80.5625 C 2.921875 -81.320312 2.796875 -82.039062 2.796875 -82.71875 C 2.796875 -84.570312 3.492188 -86.113281 4.890625 -87.34375 C 6.285156 -88.570312 7.785156 -89.1875 9.390625 -89.1875 C 10.742188 -89.1875 11.96875 -88.828125 13.0625 -88.109375 C 14.164062 -87.390625 14.882812 -86.4375 15.21875 -85.25 L 36.65625 -21.6875 L 55.0625 -66.859375 C 55.5625 -68.035156 56.316406 -68.960938 57.328125 -69.640625 C 58.347656 -70.316406 59.492188 -70.65625 60.765625 -70.65625 C 62.035156 -70.65625 63.175781 -70.316406 64.1875 -69.640625 C 65.207031 -68.960938 65.96875 -68.035156 66.46875 -66.859375 L 84.359375 -21.6875 L 105.671875 -85.25 C 106.015625 -86.519531 106.734375 -87.492188 107.828125 -88.171875 C 108.929688 -88.847656 110.203125 -89.1875 111.640625 -89.1875 Z M 111.640625 -89.1875 "></path>
      </g>
    </g>
  </g>
  <g fill="#00457d" fill-opacity="1">
    <g transform="translate(11.139216, 268.615623)">
      <g>
        <path d="M 59.375 -11.15625 C 60.976562 -11.15625 62.328125 -10.601562 63.421875 -9.5 C 64.523438 -8.40625 65.078125 -7.054688 65.078125 -5.453125 C 65.078125 -3.847656 64.523438 -2.535156 63.421875 -1.515625 C 62.328125 -0.503906 60.976562 0 59.375 0 L 14.328125 0 C 12.640625 0 11.242188 -0.523438 10.140625 -1.578125 C 9.046875 -2.640625 8.5 -4.054688 8.5 -5.828125 C 8.5 -7.359375 9.09375 -8.800781 10.28125 -10.15625 L 38.5625 -40.84375 C 46.425781 -49.21875 50.359375 -56.617188 50.359375 -63.046875 C 50.359375 -67.617188 48.859375 -71.40625 45.859375 -74.40625 C 42.859375 -77.40625 39.03125 -78.90625 34.375 -78.90625 C 31.25 -78.90625 28.25 -78.015625 25.375 -76.234375 C 22.5 -74.460938 20.171875 -71.925781 18.390625 -68.625 C 17.035156 -66.851562 15.429688 -65.96875 13.578125 -65.96875 C 12.140625 -65.96875 10.785156 -66.515625 9.515625 -67.609375 C 8.242188 -68.710938 7.609375 -69.984375 7.609375 -71.421875 C 7.609375 -72.347656 7.925781 -73.316406 8.5625 -74.328125 C 9.195312 -75.347656 10.109375 -76.535156 11.296875 -77.890625 C 14.085938 -81.609375 17.640625 -84.566406 21.953125 -86.765625 C 26.265625 -88.960938 30.617188 -90.0625 35.015625 -90.0625 C 40.679688 -90.0625 45.582031 -88.921875 49.71875 -86.640625 C 53.863281 -84.359375 57.054688 -81.226562 59.296875 -77.25 C 61.546875 -73.28125 62.671875 -68.71875 62.671875 -63.5625 C 62.671875 -53.832031 57.425781 -43.34375 46.9375 -32.09375 L 27.78125 -11.15625 Z M 59.375 -11.15625 "></path>
      </g>
    </g>
  </g>
  <g fill="#00457d" fill-opacity="1">
    <g transform="translate(80.783954, 268.615623)">
      <g>
        <path d="M 33.75 -59.375 C 39.238281 -59.375 44.222656 -58.125 48.703125 -55.625 C 53.191406 -53.132812 56.703125 -49.664062 59.234375 -45.21875 C 61.773438 -40.78125 63.046875 -35.8125 63.046875 -30.3125 C 63.046875 -24.476562 61.546875 -19.191406 58.546875 -14.453125 C 55.546875 -9.722656 51.441406 -5.984375 46.234375 -3.234375 C 41.035156 -0.484375 35.347656 0.890625 29.171875 0.890625 C 25.703125 0.890625 22.234375 0.34375 18.765625 -0.75 C 15.304688 -1.851562 12.390625 -3.378906 10.015625 -5.328125 C 9.171875 -6.003906 8.492188 -6.890625 7.984375 -7.984375 C 7.484375 -9.085938 7.234375 -10.191406 7.234375 -11.296875 C 7.234375 -12.554688 7.757812 -13.710938 8.8125 -14.765625 C 9.875 -15.828125 11.25 -16.359375 12.9375 -16.359375 C 14.039062 -16.359375 15.519531 -15.726562 17.375 -14.46875 C 21.1875 -11.675781 25.078125 -10.28125 29.046875 -10.28125 C 33.109375 -10.28125 36.804688 -11.164062 40.140625 -12.9375 C 43.484375 -14.71875 46.128906 -17.128906 48.078125 -20.171875 C 50.023438 -23.210938 51 -26.550781 51 -30.1875 C 51 -35.601562 49.222656 -39.957031 45.671875 -43.25 C 42.117188 -46.550781 37.632812 -48.203125 32.21875 -48.203125 C 29.9375 -48.203125 27.925781 -47.90625 26.1875 -47.3125 C 24.457031 -46.726562 22.367188 -45.84375 19.921875 -44.65625 C 18.898438 -44.144531 17.90625 -43.695312 16.9375 -43.3125 C 15.96875 -42.9375 15.144531 -42.75 14.46875 -42.75 C 12.007812 -42.75 10.1875 -43.46875 9 -44.90625 C 7.820312 -46.34375 7.234375 -47.992188 7.234375 -49.859375 L 7.359375 -51.125 L 11.921875 -83.984375 C 12.179688 -85.335938 12.878906 -86.476562 14.015625 -87.40625 C 15.160156 -88.332031 16.535156 -88.796875 18.140625 -88.796875 L 55.4375 -88.796875 C 57.039062 -88.796875 58.367188 -88.242188 59.421875 -87.140625 C 60.484375 -86.046875 61.015625 -84.695312 61.015625 -83.09375 C 61.015625 -81.488281 60.484375 -80.15625 59.421875 -79.09375 C 58.367188 -78.039062 57.039062 -77.515625 55.4375 -77.515625 L 22.328125 -77.515625 L 19.03125 -55.8125 C 20.882812 -56.832031 23.144531 -57.679688 25.8125 -58.359375 C 28.476562 -59.035156 31.125 -59.375 33.75 -59.375 Z M 33.75 -59.375 "></path>
      </g>
    </g>
  </g>
</svg>
