<svg xmlns="http://www.w3.org/2000/svg" viewBox="0 0 600 400" role="img" aria-label="The canonical truth problem in enterprise AI">
  <defs>
    <linearGradient id="cbg" x1="0" y1="0" x2="1" y2="1">
      <stop offset="0" stop-color="#0f172a"/>
      <stop offset="1" stop-color="#1d4ed8"/>
    </linearGradient>
    <linearGradient id="cyl" x1="0" y1="0" x2="0" y2="1">
      <stop offset="0" stop-color="#93c5fd"/>
      <stop offset="1" stop-color="#3b82f6"/>
    </linearGradient>
  </defs>
  <rect width="600" height="400" fill="url(#cbg)"/>
  <g fill="none" stroke="#ffffff" stroke-opacity="0.09" stroke-width="2">
    <line x1="120" y1="120" x2="300" y2="185"/>
    <line x1="480" y1="120" x2="300" y2="185"/>
    <line x1="120" y1="250" x2="300" y2="185"/>
    <line x1="480" y1="250" x2="300" y2="185"/>
  </g>
  <g fill="#ffffff" fill-opacity="0.35">
    <circle cx="120" cy="120" r="9"/>
    <circle cx="480" cy="120" r="9"/>
    <circle cx="120" cy="250" r="9"/>
    <circle cx="480" cy="250" r="9"/>
  </g>
  <g>
    <ellipse cx="300" cy="120" rx="70" ry="22" fill="url(#cyl)"/>
    <path d="M230 120 v70 a70 22 0 0 0 140 0 v-70" fill="url(#cyl)"/>
    <ellipse cx="300" cy="120" rx="70" ry="22" fill="#bfdbfe"/>
    <path d="M230 155 a70 22 0 0 0 140 0" fill="none" stroke="#1e3a8a" stroke-opacity="0.35" stroke-width="3"/>
  </g>
  <g transform="translate(300,150)">
    <circle r="34" fill="#0f172a"/>
    <path d="M-16 2 L-4 15 L18 -12" fill="none" stroke="#5eead4" stroke-width="9" stroke-linecap="round" stroke-linejoin="round"/>
  </g>
  <text x="300" y="352" text-anchor="middle" font-family="'Segoe UI', Roboto, Helvetica, Arial, sans-serif" font-size="30" font-weight="800" fill="#ffffff">The Canonical Truth Problem</text>
</svg>
